<svg width="28" height="35" viewBox="0 0 28 35" fill="none" xmlns="http://www.w3.org/2000/svg">
<path d="M14.0531 11.8951C13.1097 4.45 15.9916 1.83928 17.0886 1.36985C18.5114 0.812945 19.127 2.13489 19.4486 3.01085C19.7702 3.88681 22.8436 11.46 25.7627 17.15C28.6817 22.84 24.2588 22.6276 23.46 22.5796C22.6613 22.5315 14.9965 19.3402 14.0531 11.8951Z" fill="#F7C646"/>
<path d="M8.63827 19.0187C4.10545 13.0437 5.2983 9.33914 6.01401 8.38313C6.96829 7.18812 8.16113 8.02463 8.87684 8.62213C9.59255 9.21964 16.0339 14.2387 21.4018 17.7042C26.7696 21.1698 22.8332 23.2013 22.1175 23.5598C21.4018 23.9183 13.1711 24.9938 8.63827 19.0187Z" fill="#3F74F6"/>
<path d="M17.5422 25.8915C25.3603 22.4415 27.0424 24.5958 27.1504 26.1075C27.0793 26.8192 27.1417 28.3167 20.1104 29.4907C16.4442 30.1029 14.0504 31.5067 12.1727 33.0104C11.0644 33.898 9.8966 33.1578 10.6773 31.9708C12.3512 29.4254 15.0266 27.0017 17.5422 25.8915Z" fill="#254FB3"/>
</svg>
