<svg width="120" height="35" viewBox="0 0 120 35" fill="none" xmlns="http://www.w3.org/2000/svg">
<path d="M47.3836 5.29948V7.78476H52.4733L51.9505 10.27H48.0439V12.6988H51.4553L50.8226 15.7207H46.7233V18.206H63.4779V15.7207H61.0294V10.27H54.5366L55.0594 7.78476H62.5976V5.29948H47.3836ZM53.4087 15.7207L54.0414 12.6988H58.4158V15.7207H53.4087ZM61.7447 20.3524H48.6491V30.4348H51.2077V29.2486H59.1861V30.4348H61.7447V20.3524ZM51.2077 26.7351V22.8094H59.1861V26.7351H51.2077ZM41.7437 4.56519L39.9004 6.40091C41.8262 7.86949 43.3119 9.2251 44.3848 10.5242L46.1731 8.66026C44.9626 7.30465 43.4769 5.9208 41.7437 4.56519ZM37.9746 12.7271V15.2971H41.8262V25.6901C41.8262 26.255 41.5786 26.7351 41.1385 27.1305L42.1289 29.531C43.9997 28.2319 45.7879 26.7351 47.4386 25.0688L46.7233 22.2446C45.8705 23.1201 45.0726 23.9109 44.3298 24.6169V12.7271H37.9746Z" fill="white"/>
<path d="M77.0962 20.776V30.3218H79.5172V20.4654C79.8199 20.4089 80.15 20.3806 80.4801 20.3242C81.5256 24.4475 84.4143 27.7518 89.1463 30.1806L90.4669 27.9212C88.431 27.0457 86.7803 26.0008 85.4873 24.7864C86.9729 23.9109 88.1834 23.0354 89.1188 22.1599L87.7157 20.2959C86.7253 21.3126 85.4873 22.2728 84.0567 23.1766C83.3138 22.1881 82.7911 21.1149 82.461 19.957C84.2768 19.5616 85.955 19.0533 87.4956 18.4602L86.3401 16.455C81.4155 18.093 75.363 18.9121 68.1824 18.9121L68.9252 21.1714C69.9432 21.1714 70.9611 21.1432 71.979 21.1149C71.2912 21.6798 70.5484 22.1599 69.7231 22.6117C68.6501 23.1483 67.5221 23.572 66.3116 23.8826L67.5497 25.9443C69.2004 25.2947 70.4934 24.7016 71.4288 24.1933C72.3367 23.6849 73.2446 23.0071 74.1249 22.1599L72.4192 21.0867C74.0149 21.0302 75.5831 20.9172 77.0962 20.776ZM66.5042 5.18651V7.27641H68.43V15.0429C67.6322 15.0994 66.8068 15.1841 65.954 15.2406L66.2016 17.4152C69.3929 17.1328 72.3367 16.7939 75.0603 16.4268V17.6977H77.3163V16.0879L79.0495 15.8055V13.8285L77.3163 14.0827V7.27641H79.1596V5.18651H66.5042ZM70.6585 14.8452V13.3767H75.0603V14.3934C73.6572 14.5628 72.1991 14.704 70.6585 14.8452ZM70.6585 11.5692V10.3548H75.0603V11.5692H70.6585ZM70.6585 8.54729V7.27641H75.0603V8.54729H70.6585ZM81.1129 8.97092L79.5172 10.5525C80.8928 11.428 82.1584 12.3035 83.3414 13.179C82.2134 14.1957 80.9203 14.93 79.4347 15.4101L80.4526 17.5565C82.2409 16.9351 83.8366 15.9749 85.2672 14.6758C86.3676 15.5513 87.3306 16.4268 88.2109 17.3023L89.9166 15.5795C88.9812 14.7323 87.9358 13.8568 86.8078 12.953C87.8533 11.5692 88.7612 9.93114 89.504 8.0107V6.06201H79.7648V8.32136H86.8353C86.2851 9.50752 85.6248 10.5525 84.9095 11.5127C83.754 10.6654 82.4885 9.81818 81.1129 8.97092ZM74.345 24.1086C73.3271 24.9558 72.2266 25.6619 71.0712 26.2832C69.6956 27.0175 68.1824 27.5823 66.5867 27.9777L67.8523 30.0676C69.9982 29.2768 71.6489 28.5708 72.8319 27.893C73.9874 27.2152 75.1429 26.3679 76.2984 25.323L74.345 24.1086Z" fill="white"/>
<path d="M100.95 5.32617L91.8989 30.4349H95.7167L97.9218 23.9643H108.026L110.231 30.4349H114.082L105.031 5.32617H100.95ZM99.0079 20.7993L102.924 9.44062H103.056L106.94 20.7993H99.0079Z" fill="white"/>
<path d="M116.446 5.32617V30.4349H120V5.32617H116.446Z" fill="white"/>
<path d="M14.0531 11.8951C13.1097 4.45 15.9916 1.83928 17.0886 1.36985C18.5114 0.812945 19.127 2.13489 19.4486 3.01085C19.7702 3.88681 22.8436 11.46 25.7627 17.15C28.6817 22.84 24.2588 22.6276 23.46 22.5796C22.6613 22.5315 14.9965 19.3402 14.0531 11.8951Z" fill="#F7C646"/>
<path d="M8.63827 19.0187C4.10545 13.0437 5.2983 9.33914 6.01401 8.38313C6.96829 7.18812 8.16113 8.02463 8.87684 8.62213C9.59255 9.21964 16.0339 14.2387 21.4018 17.7042C26.7696 21.1698 22.8332 23.2013 22.1175 23.5598C21.4018 23.9183 13.1711 24.9938 8.63827 19.0187Z" fill="#3F74F6"/>
<path d="M17.5422 25.8915C25.3603 22.4415 27.0424 24.5958 27.1504 26.1075C27.0793 26.8192 27.1417 28.3167 20.1104 29.4907C16.4442 30.1029 14.0504 31.5067 12.1727 33.0104C11.0644 33.898 9.8966 33.1578 10.6773 31.9708C12.3512 29.4254 15.0266 27.0017 17.5422 25.8915Z" fill="#254FB3"/>
</svg>
